<?xml version="1.0" encoding="utf-8"?>
<!-- Generator: Adobe Illustrator 15.1.0, SVG Export Plug-In . SVG Version: 6.00 Build 0)  -->
<!DOCTYPE svg PUBLIC "-//W3C//DTD SVG 1.1//EN" "http://www.w3.org/Graphics/SVG/1.1/DTD/svg11.dtd">
<svg version="1.1" id="Layer_1" xmlns="http://www.w3.org/2000/svg" xmlns:xlink="http://www.w3.org/1999/xlink" x="0px" y="0px"
	 width="377px" height="56px" viewBox="0 0 377 56" enable-background="new 0 0 377 56" xml:space="preserve">
<g>
	<rect x="1.5" y="1.5" fill="#FFFFFF" width="374" height="53"/>
	<path fill="#E81F64" d="M374,3v50H3V3H374 M377,0H0v56h377V0L377,0z"/>
</g>
<path fill="#E81F64" d="M18.677,23.751l-7.166,1.993c-0.086,0.023-0.162,0.073-0.219,0.142l-5.097,6.129
	c-0.066,0.079-0.101,0.178-0.101,0.277c0,0.043,0.006,0.086,0.02,0.128c0.043,0.141,0.154,0.249,0.294,0.29l7.235,2.105
	c-0.062,1.535,0.289,2.889,1.055,4.002l-2.292,2.79c-0.145,0.177-0.13,0.435,0.037,0.593l2.179,2.072
	c0.084,0.08,0.198,0.122,0.315,0.118s0.228-0.055,0.307-0.142l2.533-2.762c0.643,0.236,2.246,0.659,4.685,0.211l2.592,7.098
	c0.05,0.139,0.167,0.24,0.31,0.273c0.143,0.035,0.293-0.008,0.399-0.108l5.774-5.495c0.067-0.064,0.112-0.147,0.129-0.239
	l1.294-7.239c1.575-1.362,3.168-2.947,4.739-4.713c9.044-10.164,10.395-18.109,10.395-21.94c0-1.261-0.153-1.956-0.16-1.985
	c-0.038-0.172-0.178-0.304-0.352-0.334c-0.45-0.077-11.172-1.73-25.125,12.223C22.441,19.258,20.628,21.128,18.677,23.751
	 M26.477,24.411c0-2.428,1.968-4.395,4.396-4.395s4.396,1.967,4.396,4.395s-1.968,4.396-4.396,4.396S26.477,26.839,26.477,24.411"/>
<rect x="57.667" y="14.169" fill="none" width="272.667" height="20.655"/>
<text transform="matrix(1 0 0 1 57.6665 20.4189)" font-family="'OratorStd'" font-size="12">GET 1:1 LIVE HELP AT GIT-START</text>
<rect x="57.667" y="28.791" fill="none" width="311.667" height="27.408"/>
<text transform="matrix(1 0 0 1 57.6665 33.4785)"><tspan x="0" y="0" fill="#5A5254" font-family="'OratorStd'" font-size="9">Do you have an urgent problem which needs to be solved </tspan><tspan x="0" y="10.8" fill="#5A5254" font-family="'OratorStd'" font-size="9">now? Mentors give you 1:1 support to resolve your issue.  </tspan></text>
</svg>
